<mxfile host="app.diagrams.net" agent="Mozilla/5.0 (Macintosh; Intel Mac OS X 10_15_7) AppleWebKit/537.36 (KHTML, like Gecko) Chrome/131.0.0.0 Safari/537.36" version="25.0.3">
  <diagram name="Page-1" id="Qny4qy3x9m0DrfihRw_X">
    <mxGraphModel dx="2288" dy="2093" grid="1" gridSize="10" guides="1" tooltips="1" connect="1" arrows="1" fold="1" page="1" pageScale="1" pageWidth="827" pageHeight="1169" math="0" shadow="0">
      <root>
        <mxCell id="0" />
        <mxCell id="1" parent="0" />
        <mxCell id="hGu5UwxwJnEl7Komf9Tr-83" value="" style="rounded=0;whiteSpace=wrap;html=1;" parent="1" vertex="1">
          <mxGeometry x="-10" y="-110" width="1340" height="810" as="geometry" />
        </mxCell>
        <mxCell id="hGu5UwxwJnEl7Komf9Tr-78" style="edgeStyle=orthogonalEdgeStyle;rounded=0;orthogonalLoop=1;jettySize=auto;html=1;exitX=0.5;exitY=1;exitDx=0;exitDy=0;" parent="1" edge="1" target="hGu5UwxwJnEl7Komf9Tr-32">
          <mxGeometry relative="1" as="geometry">
            <mxPoint x="226" y="491" as="targetPoint" />
            <mxPoint x="661" y="134" as="sourcePoint" />
            <Array as="points">
              <mxPoint x="661" y="440" />
            </Array>
          </mxGeometry>
        </mxCell>
        <mxCell id="hGu5UwxwJnEl7Komf9Tr-80" value="Token Validation" style="edgeLabel;html=1;align=center;verticalAlign=middle;resizable=0;points=[];" parent="hGu5UwxwJnEl7Komf9Tr-78" vertex="1" connectable="0">
          <mxGeometry x="-0.0172" y="3" relative="1" as="geometry">
            <mxPoint x="-102" y="-4" as="offset" />
          </mxGeometry>
        </mxCell>
        <mxCell id="hGu5UwxwJnEl7Komf9Tr-34" value="Budget Service" style="rounded=1;whiteSpace=wrap;html=1;fillColor=#647687;fontColor=#ffffff;strokeColor=#314354;" parent="1" vertex="1">
          <mxGeometry x="593" y="291" width="120" height="60" as="geometry" />
        </mxCell>
        <mxCell id="hGu5UwxwJnEl7Komf9Tr-31" value="Goals Service" style="rounded=1;whiteSpace=wrap;html=1;fillColor=#647687;fontColor=#ffffff;strokeColor=#314354;" parent="1" vertex="1">
          <mxGeometry x="594" y="178" width="120" height="60" as="geometry" />
        </mxCell>
        <mxCell id="hGu5UwxwJnEl7Komf9Tr-1" value="Goals Service" style="rounded=1;whiteSpace=wrap;html=1;fillColor=#647687;fontColor=#ffffff;strokeColor=#314354;" parent="1" vertex="1">
          <mxGeometry x="600" y="184" width="120" height="60" as="geometry" />
        </mxCell>
        <mxCell id="hGu5UwxwJnEl7Komf9Tr-12" style="edgeStyle=orthogonalEdgeStyle;rounded=0;orthogonalLoop=1;jettySize=auto;html=1;" parent="1" source="hGu5UwxwJnEl7Komf9Tr-3" target="hGu5UwxwJnEl7Komf9Tr-9" edge="1">
          <mxGeometry relative="1" as="geometry" />
        </mxCell>
        <mxCell id="hGu5UwxwJnEl7Komf9Tr-13" style="edgeStyle=orthogonalEdgeStyle;rounded=0;orthogonalLoop=1;jettySize=auto;html=1;" parent="1" source="hGu5UwxwJnEl7Komf9Tr-3" edge="1">
          <mxGeometry relative="1" as="geometry">
            <mxPoint x="196" y="561" as="targetPoint" />
          </mxGeometry>
        </mxCell>
        <mxCell id="hGu5UwxwJnEl7Komf9Tr-3" value="" style="rounded=1;whiteSpace=wrap;html=1;fillColor=#647687;fontColor=#ffffff;strokeColor=#314354;" parent="1" vertex="1">
          <mxGeometry x="80" y="405" width="120" height="60" as="geometry" />
        </mxCell>
        <mxCell id="hGu5UwxwJnEl7Komf9Tr-4" value="Budgets Service" style="rounded=1;whiteSpace=wrap;html=1;fillColor=#647687;fontColor=#ffffff;strokeColor=#314354;" parent="1" vertex="1">
          <mxGeometry x="600" y="298" width="120" height="60" as="geometry" />
        </mxCell>
        <mxCell id="hGu5UwxwJnEl7Komf9Tr-26" style="edgeStyle=orthogonalEdgeStyle;rounded=0;orthogonalLoop=1;jettySize=auto;html=1;entryX=0.5;entryY=1;entryDx=0;entryDy=0;" parent="1" source="hGu5UwxwJnEl7Komf9Tr-5" target="hGu5UwxwJnEl7Komf9Tr-24" edge="1">
          <mxGeometry relative="1" as="geometry" />
        </mxCell>
        <mxCell id="hGu5UwxwJnEl7Komf9Tr-5" value="Notifications Service" style="rounded=1;whiteSpace=wrap;html=1;fillColor=#647687;fontColor=#ffffff;strokeColor=#314354;" parent="1" vertex="1">
          <mxGeometry x="780" y="549" width="120" height="60" as="geometry" />
        </mxCell>
        <mxCell id="hGu5UwxwJnEl7Komf9Tr-63" style="edgeStyle=orthogonalEdgeStyle;rounded=0;orthogonalLoop=1;jettySize=auto;html=1;" parent="1" source="hGu5UwxwJnEl7Komf9Tr-7" target="hGu5UwxwJnEl7Komf9Tr-57" edge="1">
          <mxGeometry relative="1" as="geometry" />
        </mxCell>
        <mxCell id="hGu5UwxwJnEl7Komf9Tr-64" style="edgeStyle=orthogonalEdgeStyle;rounded=0;orthogonalLoop=1;jettySize=auto;html=1;" parent="1" source="hGu5UwxwJnEl7Komf9Tr-7" target="hGu5UwxwJnEl7Komf9Tr-58" edge="1">
          <mxGeometry relative="1" as="geometry" />
        </mxCell>
        <mxCell id="hGu5UwxwJnEl7Komf9Tr-7" value="Migration Service" style="rounded=1;whiteSpace=wrap;html=1;fillColor=#647687;fontColor=#ffffff;strokeColor=#314354;" parent="1" vertex="1">
          <mxGeometry x="348" y="74" width="120" height="60" as="geometry" />
        </mxCell>
        <mxCell id="hGu5UwxwJnEl7Komf9Tr-9" value="User DB" style="shape=cylinder3;whiteSpace=wrap;html=1;boundedLbl=1;backgroundOutline=1;size=15;fillColor=#ffcc99;strokeColor=#36393d;" parent="1" vertex="1">
          <mxGeometry x="46" y="561" width="60" height="80" as="geometry" />
        </mxCell>
        <mxCell id="hGu5UwxwJnEl7Komf9Tr-10" value="Redis Cache For User" style="shape=cylinder3;whiteSpace=wrap;html=1;boundedLbl=1;backgroundOutline=1;size=15;fillColor=#ffcc99;strokeColor=#36393d;" parent="1" vertex="1">
          <mxGeometry x="167" y="561" width="60" height="80" as="geometry" />
        </mxCell>
        <mxCell id="LQ0zlqvQZv74UB64pUlE-19" style="edgeStyle=orthogonalEdgeStyle;rounded=0;orthogonalLoop=1;jettySize=auto;html=1;entryX=0;entryY=0.5;entryDx=0;entryDy=0;" edge="1" parent="1" source="hGu5UwxwJnEl7Komf9Tr-14" target="LQ0zlqvQZv74UB64pUlE-3">
          <mxGeometry relative="1" as="geometry" />
        </mxCell>
        <mxCell id="hGu5UwxwJnEl7Komf9Tr-14" value="" style="shape=umlActor;verticalLabelPosition=bottom;verticalAlign=top;html=1;outlineConnect=0;fillColor=#76608a;fontColor=#ffffff;strokeColor=#432D57;" parent="1" vertex="1">
          <mxGeometry x="106" y="158" width="50" height="100" as="geometry" />
        </mxCell>
        <mxCell id="hGu5UwxwJnEl7Komf9Tr-49" value="Insert/ Update&lt;div&gt;Listener&lt;/div&gt;" style="edgeStyle=orthogonalEdgeStyle;rounded=0;orthogonalLoop=1;jettySize=auto;html=1;" parent="1" source="hGu5UwxwJnEl7Komf9Tr-17" target="hGu5UwxwJnEl7Komf9Tr-47" edge="1">
          <mxGeometry relative="1" as="geometry">
            <mxPoint as="offset" />
          </mxGeometry>
        </mxCell>
        <mxCell id="hGu5UwxwJnEl7Komf9Tr-17" value="Goals DB" style="shape=cylinder3;whiteSpace=wrap;html=1;boundedLbl=1;backgroundOutline=1;size=15;fillColor=#ffcc99;strokeColor=#36393d;" parent="1" vertex="1">
          <mxGeometry x="810" y="176" width="60" height="80" as="geometry" />
        </mxCell>
        <mxCell id="hGu5UwxwJnEl7Komf9Tr-50" style="edgeStyle=orthogonalEdgeStyle;rounded=0;orthogonalLoop=1;jettySize=auto;html=1;entryX=0;entryY=0.5;entryDx=0;entryDy=0;" parent="1" source="hGu5UwxwJnEl7Komf9Tr-18" target="hGu5UwxwJnEl7Komf9Tr-48" edge="1">
          <mxGeometry relative="1" as="geometry" />
        </mxCell>
        <mxCell id="hGu5UwxwJnEl7Komf9Tr-77" value="Inserts/ Update&lt;div&gt;Listener&lt;/div&gt;" style="edgeLabel;html=1;align=center;verticalAlign=middle;resizable=0;points=[];" parent="hGu5UwxwJnEl7Komf9Tr-50" vertex="1" connectable="0">
          <mxGeometry x="-0.0904" y="1" relative="1" as="geometry">
            <mxPoint as="offset" />
          </mxGeometry>
        </mxCell>
        <mxCell id="hGu5UwxwJnEl7Komf9Tr-18" value="Budget DB" style="shape=cylinder3;whiteSpace=wrap;html=1;boundedLbl=1;backgroundOutline=1;size=15;fillColor=#ffcc99;strokeColor=#36393d;" parent="1" vertex="1">
          <mxGeometry x="812" y="288" width="60" height="80" as="geometry" />
        </mxCell>
        <mxCell id="hGu5UwxwJnEl7Komf9Tr-19" style="edgeStyle=orthogonalEdgeStyle;rounded=0;orthogonalLoop=1;jettySize=auto;html=1;entryX=0;entryY=0.5;entryDx=0;entryDy=0;entryPerimeter=0;" parent="1" target="hGu5UwxwJnEl7Komf9Tr-17" edge="1">
          <mxGeometry relative="1" as="geometry">
            <mxPoint x="720" y="216" as="sourcePoint" />
          </mxGeometry>
        </mxCell>
        <mxCell id="hGu5UwxwJnEl7Komf9Tr-20" style="edgeStyle=orthogonalEdgeStyle;rounded=0;orthogonalLoop=1;jettySize=auto;html=1;entryX=0;entryY=0.5;entryDx=0;entryDy=0;entryPerimeter=0;" parent="1" source="hGu5UwxwJnEl7Komf9Tr-4" target="hGu5UwxwJnEl7Komf9Tr-18" edge="1">
          <mxGeometry relative="1" as="geometry" />
        </mxCell>
        <mxCell id="hGu5UwxwJnEl7Komf9Tr-24" value="Notifications&lt;div&gt;Topic&lt;/div&gt;" style="shape=process;whiteSpace=wrap;html=1;backgroundOutline=1;fillColor=#6d8764;fontColor=#ffffff;strokeColor=#3A5431;" parent="1" vertex="1">
          <mxGeometry x="780" y="450" width="120" height="40" as="geometry" />
        </mxCell>
        <mxCell id="hGu5UwxwJnEl7Komf9Tr-27" value="Notification&lt;div&gt;DB&lt;/div&gt;" style="shape=cylinder3;whiteSpace=wrap;html=1;boundedLbl=1;backgroundOutline=1;size=15;fillColor=#ffcc99;strokeColor=#36393d;" parent="1" vertex="1">
          <mxGeometry x="1022" y="539" width="60" height="80" as="geometry" />
        </mxCell>
        <mxCell id="hGu5UwxwJnEl7Komf9Tr-28" style="edgeStyle=orthogonalEdgeStyle;rounded=0;orthogonalLoop=1;jettySize=auto;html=1;entryX=0;entryY=0.5;entryDx=0;entryDy=0;entryPerimeter=0;" parent="1" source="hGu5UwxwJnEl7Komf9Tr-5" target="hGu5UwxwJnEl7Komf9Tr-27" edge="1">
          <mxGeometry relative="1" as="geometry" />
        </mxCell>
        <mxCell id="hGu5UwxwJnEl7Komf9Tr-29" value="Reminder Service" style="rounded=1;whiteSpace=wrap;html=1;fillColor=#647687;fontColor=#ffffff;strokeColor=#314354;" parent="1" vertex="1">
          <mxGeometry x="602" y="74" width="120" height="60" as="geometry" />
        </mxCell>
        <mxCell id="hGu5UwxwJnEl7Komf9Tr-32" value="Authorization Service" style="rounded=1;whiteSpace=wrap;html=1;fillColor=#647687;strokeColor=#314354;fontColor=#ffffff;" parent="1" vertex="1">
          <mxGeometry x="86" y="410" width="120" height="60" as="geometry" />
        </mxCell>
        <mxCell id="hGu5UwxwJnEl7Komf9Tr-52" style="edgeStyle=orthogonalEdgeStyle;rounded=0;orthogonalLoop=1;jettySize=auto;html=1;entryX=1;entryY=0.5;entryDx=0;entryDy=0;exitX=1;exitY=0.5;exitDx=0;exitDy=0;" parent="1" source="hGu5UwxwJnEl7Komf9Tr-47" target="hGu5UwxwJnEl7Komf9Tr-24" edge="1">
          <mxGeometry relative="1" as="geometry" />
        </mxCell>
        <mxCell id="hGu5UwxwJnEl7Komf9Tr-54" value="Notification Type: Goal" style="edgeLabel;html=1;align=center;verticalAlign=middle;resizable=0;points=[];" parent="hGu5UwxwJnEl7Komf9Tr-52" vertex="1" connectable="0">
          <mxGeometry x="-0.7169" y="1" relative="1" as="geometry">
            <mxPoint x="59" as="offset" />
          </mxGeometry>
        </mxCell>
        <mxCell id="hGu5UwxwJnEl7Komf9Tr-47" value="Goals Change Data Capture" style="rounded=1;whiteSpace=wrap;html=1;fillColor=#647687;fontColor=#ffffff;strokeColor=#314354;" parent="1" vertex="1">
          <mxGeometry x="990" y="186" width="120" height="60" as="geometry" />
        </mxCell>
        <mxCell id="hGu5UwxwJnEl7Komf9Tr-73" style="edgeStyle=orthogonalEdgeStyle;rounded=0;orthogonalLoop=1;jettySize=auto;html=1;entryX=1;entryY=0.5;entryDx=0;entryDy=0;exitX=1;exitY=0.5;exitDx=0;exitDy=0;" parent="1" source="hGu5UwxwJnEl7Komf9Tr-48" target="hGu5UwxwJnEl7Komf9Tr-24" edge="1">
          <mxGeometry relative="1" as="geometry" />
        </mxCell>
        <mxCell id="hGu5UwxwJnEl7Komf9Tr-74" value="Notification Type: Budget" style="edgeLabel;html=1;align=center;verticalAlign=middle;resizable=0;points=[];" parent="hGu5UwxwJnEl7Komf9Tr-73" vertex="1" connectable="0">
          <mxGeometry x="-0.5743" y="-1" relative="1" as="geometry">
            <mxPoint x="67" as="offset" />
          </mxGeometry>
        </mxCell>
        <mxCell id="hGu5UwxwJnEl7Komf9Tr-48" value="Budgets Change Data Capture" style="rounded=1;whiteSpace=wrap;html=1;fillColor=#647687;fontColor=#ffffff;strokeColor=#314354;" parent="1" vertex="1">
          <mxGeometry x="990" y="298" width="120" height="60" as="geometry" />
        </mxCell>
        <mxCell id="hGu5UwxwJnEl7Komf9Tr-57" value="CSV File" style="shape=document;whiteSpace=wrap;html=1;boundedLbl=1;fillColor=#a0522d;fontColor=#ffffff;strokeColor=#6D1F00;" parent="1" vertex="1">
          <mxGeometry x="250" y="-60" width="106" height="50" as="geometry" />
        </mxCell>
        <mxCell id="hGu5UwxwJnEl7Komf9Tr-58" value="JSON File" style="shape=document;whiteSpace=wrap;html=1;boundedLbl=1;fillColor=#a0522d;fontColor=#ffffff;strokeColor=#6D1F00;" parent="1" vertex="1">
          <mxGeometry x="445" y="-60" width="106" height="50" as="geometry" />
        </mxCell>
        <mxCell id="hGu5UwxwJnEl7Komf9Tr-71" value="Reminders&lt;div&gt;DB&lt;/div&gt;" style="shape=cylinder3;whiteSpace=wrap;html=1;boundedLbl=1;backgroundOutline=1;size=15;fillColor=#ffcc99;strokeColor=#36393d;" parent="1" vertex="1">
          <mxGeometry x="810" y="64" width="60" height="80" as="geometry" />
        </mxCell>
        <mxCell id="hGu5UwxwJnEl7Komf9Tr-72" style="edgeStyle=orthogonalEdgeStyle;rounded=0;orthogonalLoop=1;jettySize=auto;html=1;entryX=0;entryY=0.5;entryDx=0;entryDy=0;entryPerimeter=0;" parent="1" source="hGu5UwxwJnEl7Komf9Tr-29" target="hGu5UwxwJnEl7Komf9Tr-71" edge="1">
          <mxGeometry relative="1" as="geometry" />
        </mxCell>
        <mxCell id="LQ0zlqvQZv74UB64pUlE-9" style="edgeStyle=orthogonalEdgeStyle;rounded=0;orthogonalLoop=1;jettySize=auto;html=1;entryX=0.5;entryY=0;entryDx=0;entryDy=0;" edge="1" parent="1" source="LQ0zlqvQZv74UB64pUlE-3" target="hGu5UwxwJnEl7Komf9Tr-32">
          <mxGeometry relative="1" as="geometry">
            <Array as="points">
              <mxPoint x="408" y="380" />
              <mxPoint x="146" y="380" />
            </Array>
          </mxGeometry>
        </mxCell>
        <mxCell id="LQ0zlqvQZv74UB64pUlE-10" value="Login &amp;amp; Registration" style="edgeLabel;html=1;align=center;verticalAlign=middle;resizable=0;points=[];" vertex="1" connectable="0" parent="LQ0zlqvQZv74UB64pUlE-9">
          <mxGeometry x="0.1957" y="1" relative="1" as="geometry">
            <mxPoint y="1" as="offset" />
          </mxGeometry>
        </mxCell>
        <mxCell id="LQ0zlqvQZv74UB64pUlE-11" style="edgeStyle=orthogonalEdgeStyle;rounded=0;orthogonalLoop=1;jettySize=auto;html=1;entryX=0;entryY=0.5;entryDx=0;entryDy=0;" edge="1" parent="1" source="LQ0zlqvQZv74UB64pUlE-3" target="hGu5UwxwJnEl7Komf9Tr-5">
          <mxGeometry relative="1" as="geometry">
            <Array as="points">
              <mxPoint x="410" y="579" />
            </Array>
          </mxGeometry>
        </mxCell>
        <mxCell id="LQ0zlqvQZv74UB64pUlE-12" value="CRUD For&amp;nbsp;&lt;div&gt;Notifications Template&lt;/div&gt;" style="edgeLabel;html=1;align=center;verticalAlign=middle;resizable=0;points=[];" vertex="1" connectable="0" parent="LQ0zlqvQZv74UB64pUlE-11">
          <mxGeometry x="-0.0583" relative="1" as="geometry">
            <mxPoint x="130" as="offset" />
          </mxGeometry>
        </mxCell>
        <mxCell id="LQ0zlqvQZv74UB64pUlE-13" style="edgeStyle=orthogonalEdgeStyle;rounded=0;orthogonalLoop=1;jettySize=auto;html=1;entryX=0;entryY=0.5;entryDx=0;entryDy=0;" edge="1" parent="1" source="LQ0zlqvQZv74UB64pUlE-3" target="hGu5UwxwJnEl7Komf9Tr-29">
          <mxGeometry relative="1" as="geometry">
            <Array as="points">
              <mxPoint x="500" y="321" />
              <mxPoint x="500" y="104" />
            </Array>
          </mxGeometry>
        </mxCell>
        <mxCell id="LQ0zlqvQZv74UB64pUlE-14" value="CRUD for&amp;nbsp;&lt;div&gt;Reminders&lt;/div&gt;" style="edgeLabel;html=1;align=center;verticalAlign=middle;resizable=0;points=[];" vertex="1" connectable="0" parent="LQ0zlqvQZv74UB64pUlE-13">
          <mxGeometry x="0.7052" relative="1" as="geometry">
            <mxPoint x="14" y="1" as="offset" />
          </mxGeometry>
        </mxCell>
        <mxCell id="LQ0zlqvQZv74UB64pUlE-15" style="edgeStyle=orthogonalEdgeStyle;rounded=0;orthogonalLoop=1;jettySize=auto;html=1;entryX=0;entryY=0.5;entryDx=0;entryDy=0;" edge="1" parent="1" source="LQ0zlqvQZv74UB64pUlE-3" target="hGu5UwxwJnEl7Komf9Tr-31">
          <mxGeometry relative="1" as="geometry">
            <Array as="points">
              <mxPoint x="500" y="321" />
              <mxPoint x="500" y="208" />
            </Array>
          </mxGeometry>
        </mxCell>
        <mxCell id="LQ0zlqvQZv74UB64pUlE-16" value="CRUD&amp;nbsp;&lt;div&gt;for Goals&lt;/div&gt;" style="edgeLabel;html=1;align=center;verticalAlign=middle;resizable=0;points=[];" vertex="1" connectable="0" parent="LQ0zlqvQZv74UB64pUlE-15">
          <mxGeometry x="0.7085" y="3" relative="1" as="geometry">
            <mxPoint y="1" as="offset" />
          </mxGeometry>
        </mxCell>
        <mxCell id="LQ0zlqvQZv74UB64pUlE-17" style="edgeStyle=orthogonalEdgeStyle;rounded=0;orthogonalLoop=1;jettySize=auto;html=1;entryX=0;entryY=0.5;entryDx=0;entryDy=0;" edge="1" parent="1" source="LQ0zlqvQZv74UB64pUlE-3" target="hGu5UwxwJnEl7Komf9Tr-34">
          <mxGeometry relative="1" as="geometry" />
        </mxCell>
        <mxCell id="LQ0zlqvQZv74UB64pUlE-18" value="CRUD&lt;div&gt;for Budget&lt;/div&gt;" style="edgeLabel;html=1;align=center;verticalAlign=middle;resizable=0;points=[];" vertex="1" connectable="0" parent="LQ0zlqvQZv74UB64pUlE-17">
          <mxGeometry x="0.12" y="-1" relative="1" as="geometry">
            <mxPoint x="13" y="-1" as="offset" />
          </mxGeometry>
        </mxCell>
        <mxCell id="LQ0zlqvQZv74UB64pUlE-3" value="UI&lt;div&gt;(Mobile App/ Web App)&lt;/div&gt;" style="rounded=1;whiteSpace=wrap;html=1;fillColor=#647687;fontColor=#ffffff;strokeColor=#314354;" vertex="1" parent="1">
          <mxGeometry x="348" y="291" width="120" height="60" as="geometry" />
        </mxCell>
        <mxCell id="LQ0zlqvQZv74UB64pUlE-4" style="edgeStyle=orthogonalEdgeStyle;rounded=0;orthogonalLoop=1;jettySize=auto;html=1;" edge="1" parent="1" source="LQ0zlqvQZv74UB64pUlE-3" target="hGu5UwxwJnEl7Komf9Tr-7">
          <mxGeometry relative="1" as="geometry">
            <mxPoint x="280" y="186" as="sourcePoint" />
            <mxPoint x="280" y="40" as="targetPoint" />
          </mxGeometry>
        </mxCell>
        <mxCell id="LQ0zlqvQZv74UB64pUlE-5" value="Path and Format&amp;nbsp;&lt;div&gt;of file&lt;/div&gt;" style="edgeLabel;html=1;align=center;verticalAlign=middle;resizable=0;points=[];" vertex="1" connectable="0" parent="LQ0zlqvQZv74UB64pUlE-4">
          <mxGeometry x="-0.2131" relative="1" as="geometry">
            <mxPoint as="offset" />
          </mxGeometry>
        </mxCell>
        <mxCell id="LQ0zlqvQZv74UB64pUlE-20" value="Creator/Approver/Admin" style="edgeLabel;html=1;align=center;verticalAlign=middle;resizable=0;points=[];" vertex="1" connectable="0" parent="1">
          <mxGeometry x="131" y="280" as="geometry" />
        </mxCell>
      </root>
    </mxGraphModel>
  </diagram>
</mxfile>
